<svg width="837" height="282" viewBox="0 0 837 282" fill="none" xmlns="http://www.w3.org/2000/svg">
<rect width="837" height="282" fill="url(#paint0_linear_16_18)"/>
<rect width="837" height="282" fill="url(#paint1_linear_16_18)" fill-opacity="0.2"/>
<rect x="240" y="142" width="151" height="50" fill="#3929AA"/>
<path d="M247.96 119.84H280.72V122.6H247.96V119.84ZM262.68 120.64H265.96V134.16H262.68V120.64ZM252.32 113.44H277.08V116.16H252.32V113.44ZM252.32 99.64H276.68V102.32H255.6V114.24H252.32V99.64ZM254.64 106.48H275.8V109.08H254.64V106.48ZM293.717 103.12H296.357V109C296.357 116.52 291.757 124.28 286.117 127.16L284.197 124.52C289.357 122 293.717 115.12 293.717 109V103.12ZM294.317 103.12H296.957V109C296.957 114.72 301.037 121.16 306.277 123.64L304.397 126.28C298.677 123.44 294.317 116.16 294.317 109V103.12ZM285.477 101.64H304.957V104.44H285.477V101.64ZM309.237 97.96H312.597V134.12H309.237V97.96ZM311.797 112.56H318.517V115.36H311.797V112.56ZM346.034 97.92H349.394V134.12H346.034V97.92ZM348.474 112.6H355.154V115.36H348.474V112.6ZM336.794 101.84H340.034C340.034 112.12 335.314 121.4 323.634 127.28L321.794 124.72C331.794 119.64 336.794 111.92 336.794 102.36V101.84ZM323.474 101.84H338.514V104.56H323.474V101.84ZM379.242 100.72C384.482 100.72 388.242 105.64 388.242 113.32C388.242 121.04 384.482 125.96 379.242 125.96C373.962 125.96 370.242 121.04 370.242 113.32C370.242 105.64 373.962 100.72 379.242 100.72ZM379.242 103.72C375.762 103.72 373.402 107.48 373.402 113.32C373.402 119.2 375.762 123.04 379.242 123.04C382.722 123.04 385.082 119.2 385.082 113.32C385.082 107.48 382.722 103.72 379.242 103.72ZM396.082 97.92H399.362V134.16H396.082V97.92ZM387.162 111.72H397.522V114.44H387.162V111.72ZM432.798 97.92H436.118V134.16H432.798V97.92ZM425.678 106.2H433.678V108.92H425.678V106.2ZM407.718 122.96H410.398C415.998 122.96 420.598 122.8 426.118 121.92L426.438 124.68C420.758 125.56 416.118 125.76 410.398 125.76H407.718V122.96ZM407.638 101.2H423.438V114.16H410.998V123.6H407.718V111.44H420.158V103.96H407.638V101.2ZM425.438 116.08H433.438V118.8H425.438V116.08ZM457.835 114.96H461.115V120.52H457.835V114.96ZM459.515 98.4C467.475 98.4 472.235 100.6 472.235 104.64C472.235 108.68 467.475 110.92 459.515 110.92C451.515 110.92 446.795 108.68 446.795 104.64C446.795 100.6 451.515 98.4 459.515 98.4ZM459.515 100.92C453.595 100.92 450.195 102.28 450.195 104.64C450.195 107.04 453.595 108.4 459.515 108.4C465.395 108.4 468.795 107.04 468.795 104.64C468.795 102.28 465.395 100.92 459.515 100.92ZM443.155 113.24H475.835V115.96H443.155V113.24ZM447.115 119.28H471.675V127.44H450.475V131.84H447.195V125.04H468.395V121.84H447.115V119.28ZM447.195 131.12H472.755V133.72H447.195V131.12ZM511.883 98.72H514.963V132.32H511.883V98.72ZM513.683 112.68H520.363V115.4H513.683V112.68ZM492.243 121.96H493.683C495.083 121.96 497.443 121.92 500.243 121.24L500.523 124C497.523 124.72 495.203 124.72 493.683 124.72H492.243V121.96ZM492.243 102.48H499.963V105.2H495.323V123.52H492.243V102.48ZM501.523 121.96H503.043C504.963 121.96 507.483 121.88 510.243 121.12L510.563 123.88C507.603 124.68 505.123 124.72 503.043 124.72H501.523V121.96ZM501.523 102.48H509.483V105.2H504.563V123.4H501.523V102.48ZM519.203 97.96H522.363V134.12H519.203V97.96ZM529.52 138.16L528 136.32C528.933 135.787 529.693 135.173 530.28 134.48C530.867 133.787 531.16 133.187 531.16 132.68C531.16 132.413 531.093 132.147 530.96 131.88C530.827 131.64 530.547 131.293 530.12 130.84C529.587 130.333 529.24 129.907 529.08 129.56C528.92 129.213 528.84 128.84 528.84 128.44C528.84 127.8 529.067 127.293 529.52 126.92C529.973 126.52 530.56 126.32 531.28 126.32C531.947 126.32 532.547 126.52 533.08 126.92C533.64 127.293 534.067 127.827 534.36 128.52C534.68 129.187 534.84 129.96 534.84 130.84C534.84 131.64 534.707 132.413 534.44 133.16C534.173 133.907 533.8 134.6 533.32 135.24C532.84 135.88 532.28 136.453 531.64 136.96C531 137.467 530.293 137.867 529.52 138.16ZM411.976 162H418.816V164.76H411.976V162ZM424.856 147.96H428.056V184.12H424.856V147.96ZM417.696 148.72H420.856V182.32H417.696V148.72ZM405.456 150.96C410.136 150.96 413.176 155.8 413.176 163.56C413.176 171.32 410.136 176.16 405.456 176.16C400.776 176.16 397.776 171.32 397.776 163.56C397.776 155.8 400.776 150.96 405.456 150.96ZM405.456 154.04C402.616 154.04 400.816 157.72 400.816 163.56C400.816 169.4 402.616 173.08 405.456 173.08C408.336 173.08 410.136 169.4 410.136 163.56C410.136 157.72 408.336 154.04 405.456 154.04ZM452.173 160.2H462.253V162.92H452.173V160.2ZM443.453 151.08H446.173V157.52C446.173 165.64 441.893 173.4 436.173 176.48L434.053 173.84C439.373 171.2 443.453 164.24 443.453 157.52V151.08ZM444.093 151.08H446.773V157.52C446.773 164.12 450.853 170.68 456.093 173.16L454.133 175.84C448.293 172.88 444.093 165.44 444.093 157.52V151.08ZM460.613 147.92H463.893V184.16H460.613V147.92ZM496.781 165.04H500.061V170.6H496.781V165.04ZM482.101 163.2H514.781V165.88H482.101V163.2ZM486.341 149.16H510.541V160.16H486.341V149.16ZM507.301 151.8H489.621V157.52H507.301V151.8ZM486.061 169.4H510.621V177.52H489.421V181.92H486.141V175.12H507.341V171.96H486.061V169.4ZM486.141 181.12H511.701V183.72H486.141V181.12ZM528.578 150.72C533.818 150.72 537.578 155.64 537.578 163.32C537.578 171.04 533.818 175.96 528.578 175.96C523.298 175.96 519.577 171.04 519.577 163.32C519.577 155.64 523.298 150.72 528.578 150.72ZM528.578 153.72C525.098 153.72 522.738 157.48 522.738 163.32C522.738 169.2 525.098 173.04 528.578 173.04C532.058 173.04 534.418 169.2 534.418 163.32C534.418 157.48 532.058 153.72 528.578 153.72ZM545.418 147.92H548.698V184.16H545.418V147.92ZM536.498 161.72H546.858V164.44H536.498V161.72ZM557.654 150.96H560.974V156.36H572.334V150.96H575.614V167.24H557.654V150.96ZM560.974 159V164.52H572.334V159H560.974ZM564.974 166.28H568.294V174.72H564.974V166.28ZM580.174 147.96H583.494V184.12H580.174V147.96ZM582.534 163.12H589.214V165.92H582.534V163.12ZM555.774 176.72L555.294 173.92C561.814 173.92 570.534 173.88 577.894 172.88L578.174 175.32C570.534 176.64 562.094 176.76 555.774 176.72Z" fill="black"/>
<path d="M258.16 181L246.96 153H251.88L258.56 170C258.88 170.827 259.16 171.573 259.4 172.24C259.667 172.907 259.893 173.52 260.08 174.08C260.267 174.613 260.44 175.12 260.6 175.6C260.76 176.08 260.92 176.56 261.08 177.04L260.04 177.08C260.227 176.44 260.427 175.773 260.64 175.08C260.853 174.387 261.093 173.627 261.36 172.8C261.653 171.973 262 171.04 262.4 170L268.6 153H273.64L262.36 181H258.16ZM278.514 181V153H296.154V157.16H282.834V176.84H296.154V181H278.514ZM280.474 168.72V164.56H293.954V168.72H280.474ZM303.084 181V153H315.004C316.604 153 318.071 153.4 319.404 154.2C320.764 154.973 321.844 156.04 322.644 157.4C323.444 158.733 323.844 160.24 323.844 161.92C323.844 163.44 323.444 164.853 322.644 166.16C321.844 167.467 320.777 168.52 319.444 169.32C318.111 170.093 316.631 170.48 315.004 170.48H307.404V181H303.084ZM319.724 181L312.604 168.36L317.044 167.36L324.964 181.04L319.724 181ZM307.404 166.32H315.404C316.177 166.32 316.871 166.133 317.484 165.76C318.097 165.36 318.577 164.827 318.924 164.16C319.271 163.467 319.444 162.707 319.444 161.88C319.444 160.947 319.217 160.133 318.764 159.44C318.337 158.72 317.724 158.16 316.924 157.76C316.151 157.36 315.271 157.16 314.284 157.16H307.404V166.32ZM330.897 181V153H341.857C343.857 153 345.657 153.333 347.257 154C348.883 154.667 350.27 155.627 351.417 156.88C352.563 158.133 353.443 159.613 354.057 161.32C354.67 163.027 354.977 164.92 354.977 167C354.977 169.08 354.67 170.987 354.057 172.72C353.443 174.427 352.563 175.907 351.417 177.16C350.297 178.387 348.923 179.333 347.297 180C345.67 180.667 343.857 181 341.857 181H330.897ZM335.217 177.28L335.097 176.84H341.657C343.07 176.84 344.323 176.613 345.417 176.16C346.537 175.707 347.47 175.067 348.217 174.24C348.99 173.387 349.577 172.347 349.977 171.12C350.377 169.893 350.577 168.52 350.577 167C350.577 165.48 350.377 164.12 349.977 162.92C349.577 161.693 348.99 160.653 348.217 159.8C347.443 158.947 346.51 158.293 345.417 157.84C344.323 157.387 343.07 157.16 341.657 157.16H334.977L335.217 156.8V177.28ZM357.117 181L367.957 153H372.357L383.117 181H378.517L372.117 164.12C372.037 163.933 371.877 163.48 371.637 162.76C371.424 162.04 371.171 161.24 370.877 160.36C370.584 159.48 370.317 158.68 370.077 157.96C369.837 157.213 369.677 156.733 369.597 156.52L370.517 156.48C370.357 156.933 370.157 157.507 369.917 158.2C369.704 158.893 369.464 159.627 369.197 160.4C368.957 161.173 368.717 161.907 368.477 162.6C368.237 163.267 368.037 163.827 367.877 164.28L361.517 181H357.117ZM361.917 174.04L363.517 169.88H376.237L378.077 174.04H361.917Z" fill="white"/>
<defs>
<linearGradient id="paint0_linear_16_18" x1="-122.5" y1="-68.5" x2="204.5" y2="170.5" gradientUnits="userSpaceOnUse">
<stop stop-color="white"/>
<stop offset="0.633159" stop-color="#9AB7FE" stop-opacity="0.132528"/>
<stop offset="1" stop-color="white" stop-opacity="0.14"/>
</linearGradient>
<linearGradient id="paint1_linear_16_18" x1="522" y1="219.5" x2="663.5" y2="324.5" gradientUnits="userSpaceOnUse">
<stop stop-color="white"/>
<stop offset="1" stop-color="#9AB7FE" stop-opacity="0.89"/>
</linearGradient>
</defs>
</svg>
