<svg width="837" height="282" viewBox="0 0 837 282" fill="none" xmlns="http://www.w3.org/2000/svg">
<rect width="837" height="282" fill="#8783F5"/>
<path d="M363.85 159.75L345.6 152.7C340.8 157.05 333.65 159.65 326.05 159.7V152C332.6 151.9 339 149.15 341.55 144.65H326.8V137H365.3V144.65H350.9C350.75 145.25 350.5 145.85 350.25 146.4L367.05 152.75L363.85 159.75ZM367.65 162.8V170.6H350.35V180.2H341.75V170.6H324.45V162.8H367.65ZM391.996 149.4C391.846 152.2 391.546 154.85 391.096 157.25L403.096 171.7L396.796 177.2L388.146 166.2C384.696 173.2 379.246 177.15 372.846 177.2V168.9C378.996 168.3 382.946 160.55 383.496 149.4H373.796V141.6H383.446V136.35H392.096V141.6H401.246V149.4H391.996ZM417.646 152.1V160.3H412.646V179.2H404.196V136.5H412.646V152.1H417.646ZM439.741 136.35V141.65H449.241V149.35H421.541V141.65H431.091V136.35H439.741ZM465.741 152.1V160.3H460.741V179.2H452.291V136.5H460.741V152.1H465.741ZM435.391 151.1C443.091 151.1 447.791 156.85 447.791 164.4C447.791 172 443.091 177.7 435.391 177.7C427.691 177.7 422.991 172 422.991 164.4C422.991 156.85 427.691 151.1 435.391 151.1ZM435.391 170.45C438.141 170.45 439.741 168.05 439.741 164.4C439.741 160.75 438.141 158.35 435.391 158.35C432.641 158.35 431.041 160.75 431.041 164.4C431.041 168.05 432.641 170.45 435.391 170.45Z" fill="black"/>
<path d="M513.837 152.1V160.3H508.837V179.2H500.387V136.5H508.837V152.1H513.837ZM469.937 145.1V137.5H494.487V150.3C494.487 167.4 484.237 177.15 469.937 177.2V169.3C476.887 169.25 482.237 166.25 484.687 159.8H469.937V152.15H486.087V150.9V145.1H469.937Z" fill="white"/>
<path d="M347.74 101.66V103.44H338.68V101.66H342.24V98.96H344.2V101.66H347.74ZM353.68 99H355.52V116.08H353.68V99ZM349.62 105.92V99.1H351.46V115.78H349.62V107.78H347.34V105.92H349.62ZM343.28 104.78C345.54 104.78 347.16 106.62 347.16 110.02C347.16 113.42 345.54 115.26 343.28 115.26C341.02 115.26 339.38 113.42 339.38 110.02C339.38 106.62 341.02 104.78 343.28 104.78ZM343.28 113.52C344.48 113.52 345.34 112.26 345.34 110.02C345.34 107.78 344.48 106.52 343.28 106.52C342.06 106.52 341.2 107.78 341.2 110.02C341.2 112.26 342.06 113.52 343.28 113.52ZM372.878 99H374.758V116.08H372.878V107.76H370.098V115.78H368.218V99.1H370.098V105.88H372.878V99ZM358.858 115.06V99.62H366.178V115.06H358.858ZM360.738 101.42V113.26H364.318V101.42H360.738ZM391.537 99H393.517V116.08H391.537V99ZM384.877 101.44C384.857 103.42 384.657 105.24 384.337 106.84L389.917 113.74L388.357 114.92L383.757 109.06C382.577 112.64 380.537 114.76 377.957 115.06V113.1C380.997 112.54 382.797 107.78 382.877 101.44H378.357V99.62H389.257V101.44H384.877ZM412.275 102.06H414.675V103.88H412.275V107.36H410.295V99H412.275V102.06ZM407.395 99.42V106.74H397.415V99.42H407.395ZM405.435 105.1V101.06H399.375V105.1H405.435ZM399.975 112.82V114.3H412.695V115.86H398.015V111.34H410.315V109.86H397.975V108.3H412.275V112.82H399.975ZM429.913 110.88V101.46H417.093V99.6H431.973V110.88H429.913ZM424.453 113.4H433.113V115.26H416.053V113.4H422.413V105.78H424.453V113.4ZM455.017 99H456.977V116.08H455.017V111.32H452.137L452.277 109.46H455.017V105.14H452.277L452.137 103.28H455.017V99ZM446.597 99.4C449.577 99.4 451.637 101.92 451.637 107.34C451.637 112.76 449.577 115.28 446.597 115.28C443.597 115.28 441.537 112.76 441.537 107.34C441.537 101.92 443.597 99.4 446.597 99.4ZM446.597 113.46C448.357 113.46 449.657 111.68 449.657 107.34C449.657 103.02 448.357 101.22 446.597 101.22C444.817 101.22 443.497 103.02 443.497 107.34C443.497 111.68 444.817 113.46 446.597 113.46ZM474.095 116.08V99H476.075V116.08H474.095ZM460.935 115.02V113.14C465.595 113.12 468.395 109.5 468.395 103.78V101.44H460.935V99.62H470.415V103.74C470.415 110.58 466.775 115.02 460.935 115.02ZM493.473 99H495.453V116.08H493.473V107.04H489.073V105.18H493.473V99ZM486.513 99.5C486.513 101.84 486.333 103.96 486.013 105.86L491.353 114.02L489.693 115.1L485.433 108.38C484.273 112.42 482.213 114.84 479.513 115.06V113.04C482.793 112.5 484.473 106.6 484.493 99.42L486.513 99.5Z" fill="black"/>
<mask id="mask0_335_113" style="mask-type:alpha" maskUnits="userSpaceOnUse" x="503" y="69" width="63" height="63">
<rect x="503" y="71.8396" width="60" height="60" transform="rotate(-2.71267 503 71.8396)" fill="#D9D9D9"/>
</mask>
<g mask="url(#mask0_335_113)">
<path d="M551.62 122.095C550.622 122.142 549.741 121.829 548.979 121.156C548.217 120.483 547.749 119.629 547.575 118.595C546.966 114.536 545.692 110.759 543.753 107.263C541.815 103.768 539.396 100.702 536.498 98.0649C533.599 95.4283 530.318 93.3104 526.655 91.7112C522.991 90.1119 519.111 89.2008 515.012 88.9779C513.966 88.9023 513.071 88.5067 512.328 87.7911C511.585 87.0754 511.189 86.1974 511.139 85.1569C511.09 84.1164 511.413 83.2355 512.109 82.5142C512.805 81.793 513.654 81.4503 514.657 81.4863C519.796 81.6599 524.664 82.7224 529.262 84.6736C533.859 86.6249 537.956 89.236 541.553 92.507C545.149 95.7779 548.136 99.6096 550.513 104.002C552.89 108.394 554.408 113.14 555.067 118.24C555.197 119.235 554.926 120.113 554.253 120.875C553.58 121.637 552.703 122.044 551.62 122.095ZM536.637 122.805C535.68 122.85 534.8 122.548 533.998 121.897C533.195 121.247 532.664 120.386 532.405 119.314C531.464 115.312 529.468 111.924 526.417 109.148C523.366 106.373 519.804 104.706 515.731 104.148C514.639 103.992 513.731 103.534 513.007 102.776C512.282 102.017 511.897 101.139 511.849 100.14C511.798 99.0579 512.131 98.1662 512.849 97.4647C513.566 96.7633 514.407 96.4524 515.37 96.5319C521.569 97.0724 526.946 99.4143 531.502 103.558C536.057 107.701 538.897 112.833 540.021 118.953C540.191 119.904 539.941 120.771 539.269 121.554C538.596 122.337 537.719 122.754 536.637 122.805Z" fill="#35D2BF"/>
</g>
<circle cx="516.5" cy="118.5" r="5.5" fill="#35D2BF"/>
</svg>
